<svg xmlns="http://www.w3.org/2000/svg" xmlns:xlink="http://www.w3.org/1999/xlink" viewBox="0 0 24 24" version="1.1" fill="#364f6b" id="svg_icon.primary" x="65" y="50" width="30" height="30"><g id="surface1" fill="#364f6b"><path style=" " d="M 18 2 L 18 6 L 22 6 L 22 2 Z M 12.3125 3 L 10 6.25 L 13.25 8.59375 L 15.59375 5.3125 Z M 2 8 L 2 12 L 6 12 L 6 8 Z M 16.78125 9.59375 L 13.59375 12 L 16 15.1875 L 19.1875 12.78125 Z M 2 13 L 2 17 L 6 17 L 6 13 Z M 7 13 L 7 17 L 11 17 L 11 13 Z M 2 18 L 2 22 L 6 22 L 6 18 Z M 7 18 L 7 22 L 11 22 L 11 18 Z M 12 18 L 12 22 L 16 22 L 16 18 Z " fill="#364f6b"></path></g></svg>
